<svg style="position: absolute; width: 0; height: 0; overflow: hidden;" version="1.1" xmlns="http://www.w3.org/2000/svg" xmlns:xlink="http://www.w3.org/1999/xlink">
<defs>
<symbol id="icon-price-tags" viewBox="0 0 40 32">
<title>price-tags</title>
<path d="M38.5 0h-12c-0.825 0-1.977 0.477-2.561 1.061l-14.879 14.879c-0.583 0.583-0.583 1.538 0 2.121l12.879 12.879c0.583 0.583 1.538 0.583 2.121 0l14.879-14.879c0.583-0.583 1.061-1.736 1.061-2.561v-12c0-0.825-0.675-1.5-1.5-1.5zM31 12c-1.657 0-3-1.343-3-3s1.343-3 3-3 3 1.343 3 3-1.343 3-3 3z"></path>
<path d="M4 17l17-17h-2.5c-0.825 0-1.977 0.477-2.561 1.061l-14.879 14.879c-0.583 0.583-0.583 1.538 0 2.121l12.879 12.879c0.583 0.583 1.538 0.583 2.121 0l0.939-0.939-13-13z"></path>
</symbol>
<symbol id="icon-display" viewBox="0 0 32 32">
<title>display</title>
<path d="M0 2v20h32v-20h-32zM30 20h-28v-16h28v16zM21 24h-10l-1 4-2 2h16l-2-2z"></path>
</symbol>
<symbol id="icon-exit" viewBox="0 0 32 32">
<title>exit</title>
<path d="M24 20v-4h-10v-4h10v-4l6 6zM22 18v8h-10v6l-12-6v-26h22v10h-2v-8h-16l8 4v18h8v-6z"></path>
</symbol>
<symbol id="icon-mobile" viewBox="0 0 32 32">
<title>mobile</title>
<path d="M1.5 32h14c0.276 0 0.5-0.224 0.5-0.5s-0.224-0.5-0.5-0.5h-14c-0.276 0-0.5-0.224-0.5-0.5v-29c0-0.276 0.224-0.5 0.5-0.5h21c0.276 0 0.5 0.224 0.5 0.5v5c0 0.276 0.224 0.5 0.5 0.5s0.5-0.224 0.5-0.5v-5c0-0.827-0.673-1.5-1.5-1.5h-21c-0.827 0-1.5 0.673-1.5 1.5v29c0 0.827 0.673 1.5 1.5 1.5zM18 10.5v20c0 0.827 0.673 1.5 1.5 1.5h11c0.827 0 1.5-0.673 1.5-1.5v-20c0-0.827-0.673-1.5-1.5-1.5h-11c-0.827 0-1.5 0.673-1.5 1.5zM31 10.5v20c0 0.276-0.224 0.5-0.5 0.5h-11c-0.276 0-0.5-0.224-0.5-0.5v-20c0-0.276 0.224-0.5 0.5-0.5h11c0.276 0 0.5 0.224 0.5 0.5zM11 28c0 0.552 0.448 1 1 1s1-0.448 1-1c0-0.552-0.448-1-1-1s-1 0.448-1 1zM24 28c0 0.552 0.448 1 1 1s1-0.448 1-1c0-0.552-0.448-1-1-1s-1 0.448-1 1z"></path>
</symbol>
<symbol id="icon-laptop" viewBox="0 0 42 32">
<title>laptop</title>
<path d="M3.5 26c0.276 0 0.5-0.224 0.5-0.5v-23.5c0-0.598 0.402-1 1-1h32c0.57 0 1 0.468 1 1.089v23.411c0 0.276 0.224 0.5 0.5 0.5s0.5-0.224 0.5-0.5v-23.411c0-1.172-0.878-2.089-2-2.089h-32c-1.159 0-2 0.841-2 2v23.5c0 0.276 0.224 0.5 0.5 0.5zM6.5 3c-0.276 0-0.5 0.224-0.5 0.5v22c0 0.276 0.224 0.5 0.5 0.5h29c0.276 0 0.5-0.224 0.5-0.5v-22c0-0.276-0.224-0.5-0.5-0.5h-29zM35 25h-28v-21h28v21zM41.5 28h-41c-0.276 0-0.5 0.224-0.5 0.5v1.175c0 1.198 1.408 2.325 2.5 2.325h37c1.145 0 2.5-1.355 2.5-2.5v-1c0-0.276-0.224-0.5-0.5-0.5zM41 29.5c0 0.589-0.911 1.5-1.5 1.5h-37c-0.631 0-1.5-0.768-1.5-1.325v-0.675h40v0.5z"></path>
</symbol>
<symbol id="icon-display" viewBox="0 0 32 32">
<title>display</title>
<path d="M0 2v20h32v-20h-32zM30 20h-28v-16h28v16zM21 24h-10l-1 4-2 2h16l-2-2z"></path>
</symbol>
</defs>
</svg>
